name Walk5.mot
datacolumns 19
datarows 17
range 1.03900000 1.05500000
endheader

                time	   L_ground_force_vx	   L_ground_force_vy	   L_ground_force_vz	   L_ground_force_px	   L_ground_force_py	   L_ground_force_pz	   R_ground_force_vx	   R_ground_force_vy	   R_ground_force_vz	   R_ground_force_px	   R_ground_force_py	   R_ground_force_pz	   L_ground_torque_x	   L_ground_torque_y	   L_ground_torque_z	   R_ground_torque_x	   R_ground_torque_y	   R_ground_torque_z	
          1.03900000	          8.13839973	        717.94292829	         31.42071208	         -0.36027782	          0.00000000	         -0.04259338	          0.00000000	          0.00000000	          0.00000000	          0.00000000	          0.00000000	          0.00000000	          0.00000000	         -2.01854366	          0.00000000	          0.00000000	          0.00000000	          0.00000000	
          1.04000000	          8.51001265	        719.65133586	         31.49271041	         -0.35986574	          0.00000000	         -0.04257933	          0.00000000	          0.00000000	          0.00000000	          0.00000000	          0.00000000	          0.00000000	          0.00000000	         -2.08850491	          0.00000000	          0.00000000	          0.00000000	          0.00000000	
          1.04100000	          8.86262352	        721.22798644	         31.55160575	         -0.35951010	          0.00000000	         -0.04259723	          0.00000000	          0.00000000	          0.00000000	          0.00000000	          0.00000000	          0.00000000	          0.00000000	         -2.16282204	          0.00000000	          0.00000000	          0.00000000	          0.00000000	
          1.04200000	          9.17059570	        722.72396791	         31.60533608	         -0.35919775	          0.00000000	         -0.04263789	          0.00000000	          0.00000000	          0.00000000	          0.00000000	          0.00000000	          0.00000000	          0.00000000	         -2.22892623	          0.00000000	          0.00000000	          0.00000000	          0.00000000	
          1.04300000	          9.43219780	        724.22691613	         31.67207400	         -0.35890200	          0.00000000	         -0.04269125	          0.00000000	          0.00000000	          0.00000000	          0.00000000	          0.00000000	          0.00000000	          0.00000000	         -2.28177926	          0.00000000	          0.00000000	          0.00000000	          0.00000000	
          1.04400000	          9.67437697	        725.80208709	         31.76780255	         -0.35859667	          0.00000000	         -0.04274497	          0.00000000	          0.00000000	          0.00000000	          0.00000000	          0.00000000	          0.00000000	          0.00000000	         -2.32192466	          0.00000000	          0.00000000	          0.00000000	          0.00000000	
          1.04500000	          9.93280664	        727.47861940	         31.90479730	         -0.35826317	          0.00000000	         -0.04277795	          0.00000000	          0.00000000	          0.00000000	          0.00000000	          0.00000000	          0.00000000	          0.00000000	         -2.35070029	          0.00000000	          0.00000000	          0.00000000	          0.00000000	
          1.04600000	         10.22461662	        729.24977728	         32.08711637	         -0.35789615	          0.00000000	         -0.04277160	          0.00000000	          0.00000000	          0.00000000	          0.00000000	          0.00000000	          0.00000000	          0.00000000	         -2.36555713	          0.00000000	          0.00000000	          0.00000000	          0.00000000	
          1.04700000	         10.54301335	        731.06196679	         32.30312539	         -0.35750847	          0.00000000	         -0.04273000	          0.00000000	          0.00000000	          0.00000000	          0.00000000	          0.00000000	          0.00000000	          0.00000000	         -2.36054509	          0.00000000	          0.00000000	          0.00000000	          0.00000000	
          1.04800000	         10.87713726	        732.85306675	         32.53249274	         -0.35711612	          0.00000000	         -0.04267291	          0.00000000	          0.00000000	          0.00000000	          0.00000000	          0.00000000	          0.00000000	          0.00000000	         -2.33402333	          0.00000000	          0.00000000	          0.00000000	          0.00000000	
          1.04900000	         11.23212311	        734.60954590	         32.76191412	         -0.35671721	          0.00000000	         -0.04261527	          0.00000000	          0.00000000	          0.00000000	          0.00000000	          0.00000000	          0.00000000	          0.00000000	         -2.29465084	          0.00000000	          0.00000000	          0.00000000	          0.00000000	
          1.05000000	         11.62638874	        736.34109687	         32.99337648	         -0.35630543	          0.00000000	         -0.04256125	          0.00000000	          0.00000000	          0.00000000	          0.00000000	          0.00000000	          0.00000000	          0.00000000	         -2.25901363	          0.00000000	          0.00000000	          0.00000000	          0.00000000	
          1.05100000	         12.06775266	        738.04538545	         33.24343915	         -0.35589363	          0.00000000	         -0.04250428	          0.00000000	          0.00000000	          0.00000000	          0.00000000	          0.00000000	          0.00000000	          0.00000000	         -2.24229770	          0.00000000	          0.00000000	          0.00000000	          0.00000000	
          1.05200000	         12.53897261	        739.74623286	         33.53145112	         -0.35550308	          0.00000000	         -0.04243596	          0.00000000	          0.00000000	          0.00000000	          0.00000000	          0.00000000	          0.00000000	          0.00000000	         -2.24914980	          0.00000000	          0.00000000	          0.00000000	          0.00000000	
          1.05300000	         13.01028252	        741.50641303	         33.86110219	         -0.35514187	          0.00000000	         -0.04236500	          0.00000000	          0.00000000	          0.00000000	          0.00000000	          0.00000000	          0.00000000	          0.00000000	         -2.27215493	          0.00000000	          0.00000000	          0.00000000	          0.00000000	
          1.05400000	         13.46000889	        743.36703293	         34.21325718	         -0.35480475	          0.00000000	         -0.04231892	          0.00000000	          0.00000000	          0.00000000	          0.00000000	          0.00000000	          0.00000000	          0.00000000	         -2.29731927	          0.00000000	          0.00000000	          0.00000000	          0.00000000	
          1.05500000	         13.88448380	        745.30624655	         34.55857620	         -0.35448394	          0.00000000	         -0.04232399	          0.00000000	          0.00000000	          0.00000000	          0.00000000	          0.00000000	          0.00000000	          0.00000000	         -2.31137406	          0.00000000	          0.00000000	          0.00000000	          0.00000000	
